<svg width="100" height="102" viewBox="0 0 100 102" fill="none" xmlns="http://www.w3.org/2000/svg">
<path d="M2.04356 101.137C3.96843 103.223 11.8969 99.5851 18.1549 96.6681C22.8441 94.4888 41.6095 86.7893 50.9371 82.7954C53.4556 81.7185 57.1188 80.3109 59.7559 76.8427C62.0963 73.7561 68.3034 60.6466 55.8044 47.3675C43.1189 33.8849 30.0518 37.6075 25.1675 41.0671C22.2929 43.1023 19.9525 47.6897 18.9011 50.0216C14.4577 59.875 8.12345 77.9281 5.54564 85.0256C3.65469 90.2575 0.135638 99.0678 2.04356 101.137Z" fill="#9479FF"/>
<path d="M17.6462 52.9902C17.7649 54.4657 18.0617 56.8654 19.0792 61.4868C19.7746 64.6582 20.9108 67.9822 21.8351 70.1785C24.608 76.7841 28.5001 79.4467 32.4431 81.5836C39.1421 85.2128 43.6956 85.8912 43.6956 85.8912L38.2347 88.1214C38.2347 88.1214 34.9277 87.4345 30.4165 85.2128C26.1173 83.0929 21.6401 79.5061 18.367 72.4849C16.9509 69.4407 16.1283 66.4898 15.6535 64.1494C15.0684 61.2494 14.9751 59.6044 14.9751 59.6044L17.6462 52.9902Z" fill="url(#paint0_linear_623_2538)"/>
<path d="M10.9387 70.1875C10.9387 70.1875 11.6171 75.6908 16.1622 82.6356C21.4874 90.7591 28.924 92.0904 28.924 92.0904L23.9804 94.1255C23.9804 94.1255 18.4602 92.4381 13.2113 85.2728C9.93814 80.804 9.02234 75.4618 9.02234 75.4618L10.9387 70.1875Z" fill="url(#paint1_linear_623_2538)"/>
<path d="M6.23254 83.2285C6.23254 83.2285 7.47057 87.9771 10.1841 91.5216C13.4148 95.7529 17.5274 96.9825 17.5274 96.9825L13.737 98.6614C13.737 98.6614 10.8624 98.0594 7.71648 94.074C5.32522 91.0467 4.64685 87.5701 4.64685 87.5701L6.23254 83.2285Z" fill="url(#paint2_linear_623_2538)"/>
<path opacity="0.44" d="M4.17193 95.2861C4.00234 94.9046 4.00234 94.4721 4.18041 94.099L25.778 49.3096L29.331 62.665L6.60558 95.4897C5.99505 96.4055 4.62135 96.2867 4.17193 95.2861Z" fill="url(#paint3_linear_623_2538)"/>
<path d="M31.0439 67.1501C41.1347 78.9537 52.6246 77.4783 56.4489 74.4934C60.2817 71.5001 63.3089 61.2143 53.2605 49.6057C42.7288 37.4459 30.8065 40.9141 28.0506 43.5428C25.2947 46.1715 21.7841 56.3216 31.0439 67.1501Z" fill="url(#paint4_linear_623_2538)"/>
<path d="M65.7002 72.0092C62.0201 68.9226 60.0613 69.4738 57.4326 70.5677C54.0407 71.9753 48.7071 73.0183 41.4655 70.5677L43.6447 65.3188C47.9439 66.7688 51.0559 66.065 53.744 64.4793C57.2037 62.4442 61.9353 59.6544 69.2956 65.8361C72.3652 68.4139 75.5112 70.1267 77.8176 69.3466C79.4966 68.787 80.387 66.2855 80.8364 64.2928C80.8788 64.1147 80.9466 63.6059 80.9975 63.1565C81.4045 60.0445 82.0829 53.3286 87.0859 49.8943C92.4365 46.2227 98.0585 46.2227 98.0585 46.2227L99.0761 56.3304C96.4898 55.9488 94.6921 56.4745 93.1743 57.314C87.459 60.4939 92.4365 72.7046 83.5414 76.8087C74.9854 80.7856 67.9897 73.9256 65.7002 72.0092Z" fill="url(#paint5_linear_623_2538)"/>
<path d="M34.2238 59.12L30.5437 55.8214C37.302 48.2746 35.5212 42.7289 34.2238 38.6926C33.961 37.8785 33.7151 37.1069 33.554 36.3691C32.9773 33.7574 32.8586 31.4849 33.0367 29.5006C30.4419 26.2699 29.2972 22.8865 29.2209 22.6576C27.6436 17.8835 28.8308 13.2282 31.5528 8.86122C37.056 0 47.0196 0 47.0196 0L50.3436 8.89513C47.8167 8.79338 39.5321 8.92057 36.9882 12.9314C33.7744 17.9853 35.8859 21.1058 36.0385 21.462C36.6575 20.6564 37.285 20.0119 37.8446 19.5116C41.9064 15.9078 45.4339 15.3905 47.681 15.594C50.208 15.823 52.4975 17.0949 54.134 19.1809C55.9232 21.4704 56.661 24.4468 56.0928 27.1518C55.5416 29.789 53.7864 32.0191 51.1492 33.4352C46.5448 35.9112 42.712 35.5721 40.1426 34.7156C40.1596 34.775 40.1681 34.8428 40.185 34.9022C40.2783 35.3262 40.4649 35.9197 40.6853 36.6066C42.1862 41.2534 44.976 48.6307 34.2238 59.12ZM40.4564 27.2959C40.9482 27.6521 41.4655 27.9489 41.9997 28.1609C43.7804 28.8731 45.7222 28.6357 47.9269 27.4486C49.2243 26.7532 49.377 26.007 49.4278 25.7611C49.5805 25.0234 49.3261 24.0822 48.7749 23.3783C48.2916 22.7593 47.7319 22.4371 47.062 22.3693C45.7901 22.259 44.0687 23.0646 42.3473 24.5994C41.5248 25.3371 40.8973 26.2445 40.4564 27.2959Z" fill="url(#paint6_linear_623_2538)"/>
<path d="M48.9529 60.5023L43.687 60.3581C43.687 60.3581 46.1885 46.231 54.2866 43.8567C55.8044 43.4158 57.4664 42.9664 59.1369 42.7205C60.129 42.5678 61.6978 42.3389 62.4694 42.0506C62.6475 40.7193 62.0878 39.0233 61.4603 37.0985C60.9685 35.6061 60.4597 34.0712 60.1884 32.3923C59.6626 29.1191 60.536 26.2276 62.6475 24.2349C65.2253 21.8182 69.3888 21.0465 74.0865 22.115C76.7661 22.7255 78.7418 24.0398 80.4801 25.1931C82.9647 26.8466 84.4147 27.6861 87.4504 25.6425C91.1221 23.1664 86.3226 13.4742 83.7702 7.87765L93.2929 3.90918C94.5733 6.70746 100.755 21.1059 96.6762 29.3226C95.3025 32.087 92.9367 33.9186 89.8332 34.6055C83.0834 36.1148 79.1319 33.4861 76.2488 31.5697C74.8836 30.6624 73.688 29.9501 72.3906 29.577C63.3767 27.0077 75.9605 40.2698 70.0672 46.231C66.5311 49.801 57.8904 50.7422 57.3307 50.8779C51.7681 52.2177 48.9529 60.5023 48.9529 60.5023Z" fill="url(#paint7_linear_623_2538)"/>
<path d="M33.0282 29.501C32.8671 31.3665 32.7908 32.4773 33.2741 34.9025C35.606 36.6154 40.6853 36.6154 40.6853 36.6154C40.4648 35.9285 40.2698 35.335 40.185 34.911C40.168 34.8516 40.1596 34.7838 40.1426 34.7244C34.9785 32.1466 33.0282 29.501 33.0282 29.501Z" fill="url(#paint8_linear_623_2538)"/>
<path d="M22.4626 37.8531L13.6947 33.554L18.0617 27.2451L24.9387 31.7987L22.4626 37.8531Z" fill="#9479FF"/>
<path d="M9.53959 25.9467C5.06234 25.3447 0.500298 21.5458 0 21.1133L4.40093 15.9492C5.73223 17.077 8.55595 18.968 10.4469 19.2224L9.53959 25.9467Z" fill="url(#paint9_linear_623_2538)"/>
<path d="M17.4426 14.6444L10.998 12.533C11.7358 10.2774 11.9308 7.84374 11.5492 5.49488L18.2481 4.41797C18.7993 7.82678 18.5195 11.3628 17.4426 14.6444Z" fill="url(#paint10_linear_623_2538)"/>
<path d="M57.6895 9.60352L64.3165 8.15384L66.23 16.9015L59.603 18.3512L57.6895 9.60352Z" fill="url(#paint11_linear_623_2538)"/>
<path d="M74.129 11.6768L69.4652 6.75011C71.9073 4.43517 72.467 1.40794 72.467 1.37402L79.1659 2.4679C79.0811 3.00211 78.2247 7.80159 74.129 11.6768Z" fill="#9479FF"/>
<path d="M76.7205 37.8027L82.6451 35.9512L84.6687 42.4262L78.744 44.2778L76.7205 37.8027Z" fill="url(#paint12_linear_623_2538)"/>
<path d="M78.4451 92.4532L71.7038 91.6561C71.9921 89.2564 70.2029 86.314 69.7111 85.661L75.138 81.5908C75.545 82.125 79.0811 87.0178 78.4451 92.4532Z" fill="url(#paint13_linear_623_2538)"/>
<path d="M97.7956 83.8548C95.2602 83.4732 92.6654 83.3206 90.1046 83.4138L89.8756 76.6301C92.852 76.5284 95.8622 76.698 98.8047 77.1474L97.7956 83.8548Z" fill="url(#paint14_linear_623_2538)"/>
<path d="M88.6747 93.1934L93.4409 88.3661L100 94.8422L95.2338 99.6695L88.6747 93.1934Z" fill="url(#paint15_linear_623_2538)"/>
<path d="M74.6709 50.3105L79.572 55.9145L73.9681 60.8156L69.067 55.2117L74.6709 50.3105Z" fill="url(#paint16_linear_623_2538)"/>
<defs>
<linearGradient id="paint0_linear_623_2538" x1="29.3354" y1="52.9902" x2="29.3354" y2="88.1214" gradientUnits="userSpaceOnUse">
<stop stop-color="#28CAFE"/>
<stop offset="1" stop-color="white"/>
</linearGradient>
<linearGradient id="paint1_linear_623_2538" x1="18.9732" y1="70.1875" x2="18.9732" y2="94.1255" gradientUnits="userSpaceOnUse">
<stop stop-color="#28CAFE"/>
<stop offset="1" stop-color="white"/>
</linearGradient>
<linearGradient id="paint2_linear_623_2538" x1="11.0871" y1="83.2285" x2="11.0871" y2="98.6614" gradientUnits="userSpaceOnUse">
<stop stop-color="#28CAFE"/>
<stop offset="1" stop-color="white"/>
</linearGradient>
<linearGradient id="paint3_linear_623_2538" x1="16.6884" y1="49.3096" x2="16.6884" y2="96.1116" gradientUnits="userSpaceOnUse">
<stop stop-color="#28CAFE"/>
<stop offset="1" stop-color="white"/>
</linearGradient>
<linearGradient id="paint4_linear_623_2538" x1="58.8014" y1="49.0448" x2="33.5598" y2="64.1897" gradientUnits="userSpaceOnUse">
<stop offset="0.432292" stop-color="#9479FF"/>
<stop offset="1" stop-color="white"/>
</linearGradient>
<linearGradient id="paint5_linear_623_2538" x1="70.2708" y1="46.2227" x2="70.2708" y2="78.0281" gradientUnits="userSpaceOnUse">
<stop stop-color="#28CAFE"/>
<stop offset="1" stop-color="white"/>
</linearGradient>
<linearGradient id="paint6_linear_623_2538" x1="42.3976" y1="0" x2="42.3976" y2="59.12" gradientUnits="userSpaceOnUse">
<stop stop-color="#28CAFE"/>
<stop offset="1" stop-color="white"/>
</linearGradient>
<linearGradient id="paint7_linear_623_2538" x1="70.8683" y1="3.90918" x2="70.8683" y2="60.5023" gradientUnits="userSpaceOnUse">
<stop stop-color="#28CAFE"/>
<stop offset="1" stop-color="white"/>
</linearGradient>
<linearGradient id="paint8_linear_623_2538" x1="36.7952" y1="29.501" x2="36.7952" y2="36.6154" gradientUnits="userSpaceOnUse">
<stop stop-color="#28CAFE"/>
<stop offset="1" stop-color="white"/>
</linearGradient>
<linearGradient id="paint9_linear_623_2538" x1="5.22345" y1="15.9492" x2="5.22345" y2="25.9467" gradientUnits="userSpaceOnUse">
<stop stop-color="#28CAFE"/>
<stop offset="1" stop-color="white"/>
</linearGradient>
<linearGradient id="paint10_linear_623_2538" x1="14.7608" y1="4.41797" x2="14.7608" y2="14.6444" gradientUnits="userSpaceOnUse">
<stop stop-color="#28CAFE"/>
<stop offset="1" stop-color="white"/>
</linearGradient>
<linearGradient id="paint11_linear_623_2538" x1="61.003" y1="8.87868" x2="62.9165" y2="17.6263" gradientUnits="userSpaceOnUse">
<stop stop-color="#28CAFE"/>
<stop offset="1" stop-color="white"/>
</linearGradient>
<linearGradient id="paint12_linear_623_2538" x1="79.6828" y1="36.8769" x2="81.7064" y2="43.352" gradientUnits="userSpaceOnUse">
<stop stop-color="#28CAFE"/>
<stop offset="1" stop-color="white"/>
</linearGradient>
<linearGradient id="paint13_linear_623_2538" x1="74.1162" y1="81.5908" x2="74.1162" y2="92.4532" gradientUnits="userSpaceOnUse">
<stop stop-color="#28CAFE"/>
<stop offset="1" stop-color="white"/>
</linearGradient>
<linearGradient id="paint14_linear_623_2538" x1="94.3401" y1="76.6016" x2="94.3401" y2="83.8548" gradientUnits="userSpaceOnUse">
<stop stop-color="#28CAFE"/>
<stop offset="1" stop-color="white"/>
</linearGradient>
<linearGradient id="paint15_linear_623_2538" x1="91.0578" y1="90.7797" x2="97.6169" y2="97.2558" gradientUnits="userSpaceOnUse">
<stop stop-color="#28CAFE"/>
<stop offset="1" stop-color="white"/>
</linearGradient>
<linearGradient id="paint16_linear_623_2538" x1="77.1215" y1="53.1125" x2="71.5175" y2="58.0136" gradientUnits="userSpaceOnUse">
<stop stop-color="#28CAFE"/>
<stop offset="1" stop-color="white"/>
</linearGradient>
</defs>
</svg>
