<svg width="33" height="31" viewBox="0 0 33 31" fill="none" xmlns="http://www.w3.org/2000/svg">
<path d="M4.25 4.66699V0.416992H7.08333V4.66699H11.3333V7.50033H7.08333V11.7503H4.25V7.50033H0V4.66699M8.5 13.167V8.91699H12.75V4.66699H22.6667L25.2167 7.50033H29.75C31.3083 7.50033 32.5833 8.77533 32.5833 10.3337V27.3337C32.5833 28.892 31.3083 30.167 29.75 30.167H7.08333C5.525 30.167 4.25 28.892 4.25 27.3337V13.167M18.4167 25.917C24.7208 25.917 27.8942 18.2953 23.4317 13.8187C18.9692 9.35616 11.3333 12.5295 11.3333 18.8337C11.3333 22.7437 14.5067 25.917 18.4167 25.917ZM13.8833 18.8337C13.8833 22.8712 18.7708 24.897 21.6183 22.0353C24.48 19.1878 22.4542 14.3003 18.4167 14.3003C15.9233 14.3003 13.8833 16.3403 13.8833 18.8337Z" fill="white"/>
</svg>
