<svg width="100" height="100" viewBox="0 0 100 100" fill="none" xmlns="http://www.w3.org/2000/svg">
<path d="M100 50C100 77.8571 77.381 100 50 100C22.619 100 0 77.8571 0 50C0 22.1429 22.1429 0 50 0C77.8571 0 100 22.1429 100 50ZM49.5238 73.0952C49.5238 72.1429 49.0476 71.6667 48.0952 71.1905C45 70.2381 42.1429 70.2381 39.5238 67.619C39.0476 66.6667 39.0476 65.7143 38.5714 64.5238C37.619 63.5714 35 63.0952 33.5714 62.619C31.6667 62.619 29.5238 62.619 27.1429 62.619C26.1905 62.619 24.5238 62.619 23.5714 62.619C22.1429 62.1429 20.9524 60 20 58.5714C20 58.0952 20 57.1429 19.0476 57.1429C18.0952 56.6667 17.1429 57.619 15.9524 57.1429C15.4762 56.6667 15.4762 56.1905 15.4762 55.7143C15.4762 54.2857 16.4286 52.619 17.381 51.6667C18.8095 50.7143 20.4762 52.1429 21.9048 52.1429C22.381 52.1429 22.381 52.1429 22.8571 52.619C24.2857 53.0952 24.7619 55 24.7619 56.6667V57.619C24.7619 58.0952 25.2381 58.0952 25.7143 58.0952C26.1905 55.4762 26.1905 53.0952 26.6667 50.4762C26.6667 47.381 29.7619 44.5238 32.1429 43.5714C33.0952 43.0952 33.5714 44.0476 34.7619 43.5714C37.8571 42.619 45.2381 39.5238 43.8095 35.4762C42.8571 31.9048 39.7619 28.5714 35.7143 29.0476C34.7619 29.5238 34.2857 30 33.3333 30.4762C31.9048 31.4286 28.8095 34.5238 27.381 34.5238C24.7619 34.0476 24.7619 30.4762 25.4762 29.0476C25.9524 27.1429 30.4762 20.4762 33.5714 21.6667C34.0476 22.1429 35 23.0952 35.4762 23.5714C36.4286 24.0476 38.0952 24.0476 39.5238 24.0476C40 24.0476 40.4762 24.0476 40.9524 23.5714C41.4286 23.0952 41.4286 23.0952 41.4286 22.619C41.4286 21.1905 40 19.5238 39.0476 18.5714C38.0952 17.619 36.4286 16.6667 35 15.9524C30 14.5238 21.9048 16.4286 18.0952 20C14.2857 23.5714 11.1905 29.5238 9.04762 34.5238C8.09524 37.619 7.14286 41.4286 6.66667 45C6.19048 47.381 5.71429 49.5238 7.14286 51.9048C8.57143 55 11.6667 57.8571 14.7619 60C16.6667 61.4286 20.7143 61.4286 22.8571 64.0476C24.2857 65.9524 23.8095 68.5714 23.8095 70.9524C23.8095 74.0476 25.7143 76.4286 26.9048 79.0476C27.381 80.4762 27.8571 82.619 28.3333 84.0476C28.3333 84.5238 28.8095 87.619 28.8095 88.0952C31.9048 89.5238 34.2857 91.1905 37.8571 92.1429C38.3333 92.1429 40.2381 89.0476 40.2381 88.5714C41.6667 87.1429 42.8571 85 44.2857 84.0476C45.2381 83.5714 46.1905 83.0952 47.381 82.1429C48.3333 81.1905 48.8095 79.0476 49.2857 77.619C49.5238 76.4286 50 74.5238 49.5238 73.0952ZM50.4762 26.9048C50.9524 26.9048 51.4286 26.4286 52.381 25.9524C53.8095 25 55.4762 23.3333 56.9048 22.381C58.3333 21.4286 60 19.7619 60.9524 18.8095C62.381 17.8571 63.5714 15.7143 64.0476 14.2857C64.5238 13.3333 65.9524 11.1905 65.4762 9.7619C65 8.80952 62.3809 8.33333 61.4286 7.85714C57.3809 6.90476 54.0476 6.42857 50 6.42857C48.5714 6.42857 46.4286 6.90476 45.9524 8.33333C45.4762 10.9524 47.381 10.2381 49.5238 10.9524C49.5238 10.9524 50 15 50 15.4762C50.4762 17.8571 49.0476 19.5238 49.0476 21.9048C49.0476 23.3333 49.0476 25.9524 50 26.9048H50.4762ZM92.3809 61.9048C92.8571 60.9524 92.8571 59.2857 93.3333 58.3333C93.8095 55.9524 93.8095 53.3333 93.8095 50.9524C93.8095 45.9524 93.3333 40.9524 91.9048 36.4286C90.9524 35 90.4762 33.3333 90 31.9048C89.0476 29.2857 87.6191 26.9048 85.4762 25C83.5714 22.381 80.9524 15.4762 76.4286 17.619C75 18.0952 74.0476 20 72.8571 21.1905C71.9048 22.619 70.9524 24.2857 69.7619 25.7143C69.2857 26.1905 68.8095 27.1429 69.2857 27.619C69.2857 28.0952 69.7619 28.0952 70.2381 28.0952C71.1905 28.5714 71.6667 28.5714 72.619 29.0476C73.0952 29.0476 73.5714 29.5238 73.0952 30C73.0952 30 73.0952 30.4762 72.619 30.4762C70.2381 33.0952 67.619 35 65.2381 37.381C64.7619 37.8571 64.2857 38.8095 64.2857 39.2857C64.2857 39.7619 64.7619 39.7619 64.7619 40.2381C64.7619 40.7143 64.2857 40.7143 63.8095 41.1905C62.8571 41.6667 61.9048 42.1429 61.1905 42.619C60.7143 43.5714 61.1905 45.2381 60.7143 46.1905C60.2381 48.8095 58.8095 50.7143 57.619 53.0952C56.6667 54.5238 56.1905 56.1905 55.2381 57.619C55.2381 59.5238 54.7619 61.1905 55.7143 62.619C58.0952 66.1905 62.619 64.0476 66.1905 65.7143C67.1429 66.1905 68.0952 66.1905 68.8095 67.1429C70.2381 68.5714 70.2381 71.1905 70.7143 72.619C71.1905 74.5238 71.6667 76.6667 72.619 78.5714C73.0952 80.9524 74.0476 83.5714 74.5238 85.4762C79.0476 81.9048 83.0952 78.0952 85.9524 73.0952C89.5238 70 90.9524 65.9524 92.3809 61.9048Z" fill="url(#paint0_linear_623_2562)"/>
<defs>
<linearGradient id="paint0_linear_623_2562" x1="50" y1="0" x2="50" y2="100" gradientUnits="userSpaceOnUse">
<stop stop-color="#28CAFE"/>
<stop offset="1" stop-color="#7E5FFA"/>
</linearGradient>
</defs>
</svg>
